<?xml version="1.0" encoding="UTF-8" standalone="no" ?>
<!DOCTYPE svg PUBLIC "-//W3C//DTD SVG 1.1//EN" "http://www.w3.org/Graphics/SVG/1.1/DTD/svg11.dtd">
<svg xmlns="http://www.w3.org/2000/svg" xmlns:xlink="http://www.w3.org/1999/xlink" version="1.1" width="1080" height="1080" viewBox="0 0 1080 1080" xml:space="preserve">
<desc>Created with Fabric.js 5.2.4</desc>
<defs>
</defs>
<g transform="matrix(1 0 0 1 540 540)" id="effa5f02-92b2-48e0-be0b-0824fab35eed"  >
<rect style="stroke: none; stroke-width: 1; stroke-dasharray: none; stroke-linecap: butt; stroke-dashoffset: 0; stroke-linejoin: miter; stroke-miterlimit: 4; fill: rgb(255,255,255); fill-rule: nonzero; opacity: 1;" vector-effect="non-scaling-stroke"  x="-540" y="-540" rx="0" ry="0" width="1080" height="1080" />
</g>
<g transform="matrix(1 0 0 1 540 540)" id="fc485c89-901e-485f-ad12-c413489ae953"  >
</g>
<g transform="matrix(1 0 0 1 540 540)"  >
<g style="" vector-effect="non-scaling-stroke"   >
		<g transform="matrix(0.13 0 0 -0.13 -8.84 -134.99)"  >
<path style="stroke: none; stroke-width: 1; stroke-dasharray: none; stroke-linecap: butt; stroke-dashoffset: 0; stroke-linejoin: miter; stroke-miterlimit: 4; fill: rgb(0,0,0); fill-rule: nonzero; opacity: 1;" vector-effect="non-scaling-stroke"  transform=" translate(-2715.38, -3011.77)" d="M 2570 3818 C 2284 3801 1980 3703 1726 3546 C 1376 3329 1143 3045 967 2620 C 906 2470 854 2232 878 2208 C 897 2189 918 2208 925 2252 C 936 2324 988 2520 1019 2614 C 1115 2895 1356 3216 1626 3421 C 1930 3652 2315 3780 2702 3780 C 3186 3780 3648 3590 4000 3248 C 4261 2994 4445 2645 4491 2315 C 4503 2224 4514 2197 4538 2202 C 4621 2218 4440 2744 4257 3020 C 4162 3163 4013 3326 3904 3405 C 3883 3421 3854 3444 3840 3456 C 3804 3488 3606 3608 3540 3637 C 3201 3789 2928 3840 2570 3818 z" stroke-linecap="round" />
</g>
		<g transform="matrix(0.13 0 0 -0.13 -9.28 -129.99)"  >
<path style="stroke: none; stroke-width: 1; stroke-dasharray: none; stroke-linecap: butt; stroke-dashoffset: 0; stroke-linejoin: miter; stroke-miterlimit: 4; fill: rgb(0,0,0); fill-rule: nonzero; opacity: 1;" vector-effect="non-scaling-stroke"  transform=" translate(-2712.12, -2974.27)" d="M 2465 3725 C 2120 3671 1788 3516 1541 3292 C 1377 3143 1224 2927 1120 2699 C 1051 2548 1017 2444 995 2316 C 980 2225 981 2210 1006 2210 C 1025 2210 1034 2237 1050 2330 C 1065 2420 1139 2638 1187 2734 C 1352 3063 1631 3354 1921 3501 C 2193 3638 2405 3690 2695 3690 C 3046 3690 3363 3598 3631 3420 C 4019 3162 4280 2774 4371 2322 C 4392 2216 4394 2210 4421 2210 C 4443 2210 4444 2219 4429 2310 C 4396 2516 4280 2784 4132 3000 C 4050 3118 3843 3331 3730 3412 C 3622 3490 3413 3600 3301 3638 C 3191 3676 3021 3718 2928 3730 C 2826 3743 2561 3741 2465 3725 z" stroke-linecap="round" />
</g>
		<g transform="matrix(0.13 0 0 -0.13 -8.34 -136.96)"  >
<path style="stroke: none; stroke-width: 1; stroke-dasharray: none; stroke-linecap: butt; stroke-dashoffset: 0; stroke-linejoin: miter; stroke-miterlimit: 4; fill: rgb(0,0,0); fill-rule: nonzero; opacity: 1;" vector-effect="non-scaling-stroke"  transform=" translate(-2719.18, -3026.55)" d="M 2929 3359 C 2813 3332 2671 3241 2630 3168 L 2607 3128 L 2551 3134 C 2500 3140 2490 3138 2447 3110 C 2371 3062 2359 3002 2423 2987 C 2465 2977 2472 2967 2501 2874 C 2524 2800 2571 2741 2634 2707 C 2689 2678 2822 2676 2864 2703 C 2902 2729 2893 2732 2835 2714 C 2701 2673 2574 2753 2532 2903 C 2520 2949 2505 2974 2476 3002 L 2437 3041 L 2460 3065 C 2491 3098 2515 3104 2551 3090 C 2579 3078 2580 3076 2580 3001 C 2580 2882 2607 2810 2652 2810 C 2671 2810 2671 2811 2651 2836 C 2553 2960 2646 3178 2823 3240 C 2897 3266 2980 3267 2980 3242 C 2980 3204 2959 3155 2920 3106 C 2876 3049 2873 3040 2894 3040 C 2916 3040 2999 3136 3021 3186 C 3047 3248 3062 3319 3055 3347 C 3050 3367 3043 3370 3007 3369 C 2984 3368 2949 3364 2929 3359 z" stroke-linecap="round" />
</g>
		<g transform="matrix(0.13 0 0 -0.13 -6.54 -65.17)"  >
<path style="stroke: none; stroke-width: 1; stroke-dasharray: none; stroke-linecap: butt; stroke-dashoffset: 0; stroke-linejoin: miter; stroke-miterlimit: 4; fill: rgb(0,0,0); fill-rule: nonzero; opacity: 1;" vector-effect="non-scaling-stroke"  transform=" translate(-2732.65, -2488.16)" d="M 2016 2602 C 2009 2591 2023 2588 2205 2570 C 2348 2555 2374 2535 2235 2547 C 2180 2551 2096 2555 2047 2555 C 1949 2554 1939 2548 1918 2485 C 1906 2447 1902 2445 1858 2440 C 1804 2433 1786 2421 1792 2394 C 1794 2381 1807 2373 1830 2370 C 1856 2366 3442 2365 3617 2369 C 3691 2371 3695 2440 3620 2440 C 3571 2440 3550 2461 3550 2510 C 3550 2548 3550 2549 3503 2556 C 3459 2562 3229 2556 3110 2545 C 3066 2541 3060 2542 3079 2550 C 3100 2559 3391 2590 3458 2590 C 3470 2590 3480 2595 3480 2600 C 3480 2617 3299 2611 3174 2590 C 3004 2561 2922 2536 2820 2485 C 2771 2460 2724 2440 2717 2440 C 2709 2440 2674 2456 2637 2475 C 2543 2525 2479 2547 2344 2576 C 2210 2604 2027 2619 2016 2602 z" stroke-linecap="round" />
</g>
		<g transform="matrix(0.13 0 0 -0.13 -74.08 -32.64)"  >
<path style="stroke: none; stroke-width: 1; stroke-dasharray: none; stroke-linecap: butt; stroke-dashoffset: 0; stroke-linejoin: miter; stroke-miterlimit: 4; fill: rgb(0,0,0); fill-rule: nonzero; opacity: 1;" vector-effect="non-scaling-stroke"  transform=" translate(-2226.11, -2244.2)" d="M 2157 2298 C 2155 2291 2154 2274 2156 2260 C 2157 2246 2159 2223 2159 2208 C 2160 2167 2180 2174 2180 2215 C 2180 2253 2195 2262 2205 2230 C 2213 2206 2223 2205 2240 2225 C 2259 2248 2270 2243 2270 2209 C 2270 2155 2295 2181 2297 2237 C 2300 2306 2281 2323 2250 2279 L 2227 2248 L 2203 2279 C 2177 2312 2165 2317 2157 2298 z" stroke-linecap="round" />
</g>
		<g transform="matrix(0.13 0 0 -0.13 -59.66 -32.65)"  >
<path style="stroke: none; stroke-width: 1; stroke-dasharray: none; stroke-linecap: butt; stroke-dashoffset: 0; stroke-linejoin: miter; stroke-miterlimit: 4; fill: rgb(0,0,0); fill-rule: nonzero; opacity: 1;" vector-effect="non-scaling-stroke"  transform=" translate(-2334.29, -2244.25)" d="M 2326 2303 C 2323 2300 2320 2270 2320 2238 C 2320 2159 2343 2163 2348 2242 C 2351 2294 2342 2319 2326 2303 z" stroke-linecap="round" />
</g>
		<g transform="matrix(0.13 0 0 -0.13 -46.89 -32.79)"  >
<path style="stroke: none; stroke-width: 1; stroke-dasharray: none; stroke-linecap: butt; stroke-dashoffset: 0; stroke-linejoin: miter; stroke-miterlimit: 4; fill: rgb(0,0,0); fill-rule: nonzero; opacity: 1;" vector-effect="non-scaling-stroke"  transform=" translate(-2430, -2245.34)" d="M 2370 2245 C 2370 2208 2374 2180 2380 2180 C 2386 2180 2390 2196 2390 2215 C 2390 2260 2408 2260 2438 2215 C 2473 2161 2490 2169 2490 2239 C 2490 2307 2476 2328 2466 2275 C 2462 2256 2456 2240 2452 2240 C 2448 2240 2435 2256 2422 2275 C 2386 2331 2370 2322 2370 2245 z" stroke-linecap="round" />
</g>
		<g transform="matrix(0.13 0 0 -0.13 -34.32 -32.62)"  >
<path style="stroke: none; stroke-width: 1; stroke-dasharray: none; stroke-linecap: butt; stroke-dashoffset: 0; stroke-linejoin: miter; stroke-miterlimit: 4; fill: rgb(0,0,0); fill-rule: nonzero; opacity: 1;" vector-effect="non-scaling-stroke"  transform=" translate(-2524.29, -2244.04)" d="M 2517 2304 C 2513 2300 2510 2270 2510 2238 C 2510 2160 2534 2162 2538 2240 C 2541 2290 2532 2318 2517 2304 z" stroke-linecap="round" />
</g>
		<g transform="matrix(0.13 0 0 -0.13 -23.24 -32.31)"  >
<path style="stroke: none; stroke-width: 1; stroke-dasharray: none; stroke-linecap: butt; stroke-dashoffset: 0; stroke-linejoin: miter; stroke-miterlimit: 4; fill: rgb(0,0,0); fill-rule: nonzero; opacity: 1;" vector-effect="non-scaling-stroke"  transform=" translate(-2607.42, -2241.69)" d="M 2570 2289 C 2557 2266 2569 2245 2601 2235 C 2629 2226 2621 2194 2592 2198 C 2565 2202 2563 2184 2590 2175 C 2616 2167 2650 2186 2650 2210 C 2650 2220 2636 2238 2620 2250 C 2588 2273 2588 2290 2621 2290 C 2632 2290 2638 2295 2635 2300 C 2624 2318 2581 2311 2570 2289 z" stroke-linecap="round" />
</g>
		<g transform="matrix(0.13 0 0 -0.13 -7.94 -32.75)"  >
<path style="stroke: none; stroke-width: 1; stroke-dasharray: none; stroke-linecap: butt; stroke-dashoffset: 0; stroke-linejoin: miter; stroke-miterlimit: 4; fill: rgb(0,0,0); fill-rule: nonzero; opacity: 1;" vector-effect="non-scaling-stroke"  transform=" translate(-2722.17, -2245)" d="M 2693 2292 C 2704 2280 2710 2256 2710 2227 C 2710 2201 2715 2180 2720 2180 C 2726 2180 2730 2203 2730 2230 C 2730 2266 2734 2282 2745 2286 C 2774 2297 2760 2310 2718 2310 C 2679 2310 2678 2309 2693 2292 z" stroke-linecap="round" />
</g>
		<g transform="matrix(0.13 0 0 -0.13 25.11 -32.7)"  >
<path style="stroke: none; stroke-width: 1; stroke-dasharray: none; stroke-linecap: butt; stroke-dashoffset: 0; stroke-linejoin: miter; stroke-miterlimit: 4; fill: rgb(0,0,0); fill-rule: nonzero; opacity: 1;" vector-effect="non-scaling-stroke"  transform=" translate(-2970, -2244.6)" d="M 2907 2303 C 2903 2300 2900 2270 2900 2238 C 2900 2179 2915 2160 2926 2205 C 2929 2219 2939 2230 2946 2230 C 2954 2230 2966 2219 2972 2205 C 2980 2187 2991 2180 3012 2180 C 3040 2180 3040 2181 3040 2241 C 3040 2292 3038 2301 3024 2296 C 3016 2293 3000 2294 2991 2300 C 2968 2312 2956 2301 2972 2282 C 2982 2271 2981 2265 2966 2254 C 2955 2247 2943 2243 2939 2246 C 2925 2254 2928 2298 2943 2303 C 2949 2306 2946 2309 2934 2309 C 2923 2310 2910 2307 2907 2303 z M 3020 2230 C 3020 2214 3016 2200 3011 2200 C 2999 2200 2987 2237 2995 2250 C 3007 2270 3020 2260 3020 2230 z" stroke-linecap="round" />
</g>
		<g transform="matrix(0.13 0 0 -0.13 48.87 -32.11)"  >
<path style="stroke: none; stroke-width: 1; stroke-dasharray: none; stroke-linecap: butt; stroke-dashoffset: 0; stroke-linejoin: miter; stroke-miterlimit: 4; fill: rgb(0,0,0); fill-rule: nonzero; opacity: 1;" vector-effect="non-scaling-stroke"  transform=" translate(-3148.23, -2240.23)" d="M 3100 2290 C 3073 2263 3075 2224 3105 2195 C 3142 2157 3181 2166 3208 2217 C 3242 2279 3151 2341 3100 2290 z M 3183 2269 C 3196 2248 3184 2204 3164 2196 C 3141 2187 3100 2216 3100 2240 C 3100 2284 3160 2305 3183 2269 z" stroke-linecap="round" />
</g>
		<g transform="matrix(0.13 0 0 -0.13 5.38 -31.63)"  >
<path style="stroke: none; stroke-width: 1; stroke-dasharray: none; stroke-linecap: butt; stroke-dashoffset: 0; stroke-linejoin: miter; stroke-miterlimit: 4; fill: rgb(0,0,0); fill-rule: nonzero; opacity: 1;" vector-effect="non-scaling-stroke"  transform=" translate(-2822.03, -2236.61)" d="M 2787 2293 C 2773 2280 2780 2193 2795 2180 C 2803 2173 2810 2171 2811 2176 C 2812 2181 2813 2194 2814 2205 C 2814 2218 2823 2226 2839 2228 L 2863 2232 L 2840 2243 C 2812 2258 2810 2274 2836 2278 C 2875 2286 2874 2300 2834 2300 C 2811 2300 2790 2297 2787 2293 z" stroke-linecap="round" />
</g>
		<g transform="matrix(0.13 0 0 -0.13 130.57 24.26)"  >
<path style="stroke: none; stroke-width: 1; stroke-dasharray: none; stroke-linecap: butt; stroke-dashoffset: 0; stroke-linejoin: miter; stroke-miterlimit: 4; fill: rgb(0,0,0); fill-rule: nonzero; opacity: 1;" vector-effect="non-scaling-stroke"  transform=" translate(-3760.97, -1817.44)" d="M 3656 2134 C 3528 2093 3431 1977 3415 1845 C 3404 1758 3440 1661 3509 1590 C 3581 1517 3652 1488 3761 1487 C 3969 1485 4122 1640 4108 1839 C 4099 1961 4031 2057 3911 2117 C 3844 2150 3731 2158 3656 2134 z M 3855 2011 C 3939 1973 3980 1908 3980 1815 C 3980 1590 3669 1518 3568 1719 C 3534 1784 3533 1838 3561 1900 C 3588 1960 3606 1979 3665 2006 C 3726 2035 3799 2037 3855 2011 z" stroke-linecap="round" />
</g>
		<g transform="matrix(0.13 0 0 -0.13 -301.97 24.57)"  >
<path style="stroke: none; stroke-width: 1; stroke-dasharray: none; stroke-linecap: butt; stroke-dashoffset: 0; stroke-linejoin: miter; stroke-miterlimit: 4; fill: rgb(0,0,0); fill-rule: nonzero; opacity: 1;" vector-effect="non-scaling-stroke"  transform=" translate(-516.91, -1815.13)" d="M 220 2122 C 220 2111 254 2018 295 1914 C 337 1810 389 1678 412 1620 C 434 1562 460 1509 468 1503 C 488 1486 565 1486 577 1503 C 582 1509 624 1612 670 1730 C 716 1848 769 1985 788 2034 C 809 2090 818 2126 812 2132 C 807 2137 779 2140 749 2138 C 696 2135 695 2134 673 2090 C 661 2065 637 2005 620 1955 C 560 1785 528 1709 518 1712 C 509 1715 465 1824 382 2045 C 368 2084 352 2121 347 2128 C 341 2135 314 2140 279 2140 C 228 2140 220 2137 220 2122 z" stroke-linecap="round" />
</g>
		<g transform="matrix(0.13 0 0 -0.13 -242.03 24.49)"  >
<path style="stroke: none; stroke-width: 1; stroke-dasharray: none; stroke-linecap: butt; stroke-dashoffset: 0; stroke-linejoin: miter; stroke-miterlimit: 4; fill: rgb(0,0,0); fill-rule: nonzero; opacity: 1;" vector-effect="non-scaling-stroke"  transform=" translate(-966.46, -1815.68)" d="M 905 2127 C 902 2120 901 1975 902 1805 L 905 1495 L 953 1492 C 980 1490 1008 1494 1016 1501 C 1035 1517 1037 2109 1018 2128 C 1002 2144 911 2144 905 2127 z" stroke-linecap="round" />
</g>
		<g transform="matrix(0.13 0 0 -0.13 -178.86 24.59)"  >
<path style="stroke: none; stroke-width: 1; stroke-dasharray: none; stroke-linecap: butt; stroke-dashoffset: 0; stroke-linejoin: miter; stroke-miterlimit: 4; fill: rgb(0,0,0); fill-rule: nonzero; opacity: 1;" vector-effect="non-scaling-stroke"  transform=" translate(-1440.21, -1814.96)" d="M 1157 2133 C 1147 2123 1149 1517 1159 1501 C 1166 1490 1200 1488 1332 1492 C 1494 1495 1497 1496 1564 1529 C 1675 1583 1730 1680 1730 1822 C 1730 1934 1683 2025 1596 2083 C 1567 2102 1525 2123 1504 2129 C 1462 2141 1168 2144 1157 2133 z M 1473 2024 C 1619 1974 1657 1762 1540 1656 C 1492 1613 1440 1598 1352 1602 L 1285 1605 L 1282 1810 C 1281 1922 1282 2020 1284 2027 C 1292 2046 1416 2044 1473 2024 z" stroke-linecap="round" />
</g>
		<g transform="matrix(0.13 0 0 -0.13 -92.87 24.65)"  >
<path style="stroke: none; stroke-width: 1; stroke-dasharray: none; stroke-linecap: butt; stroke-dashoffset: 0; stroke-linejoin: miter; stroke-miterlimit: 4; fill: rgb(0,0,0); fill-rule: nonzero; opacity: 1;" vector-effect="non-scaling-stroke"  transform=" translate(-2085.17, -1814.48)" d="M 2016 2094 C 2002 2069 1990 2046 1990 2044 C 1990 2040 1781 1605 1750 1546 C 1739 1525 1733 1504 1736 1499 C 1739 1494 1765 1490 1795 1490 C 1857 1490 1869 1499 1902 1570 L 1925 1620 L 2086 1620 L 2247 1620 L 2271 1568 C 2284 1540 2301 1511 2308 1503 C 2323 1488 2426 1485 2435 1499 C 2440 1507 2277 1856 2173 2060 L 2134 2135 L 2088 2138 C 2043 2141 2042 2140 2016 2094 z M 2145 1833 C 2170 1780 2190 1735 2190 1734 C 2190 1727 1994 1730 1987 1736 C 1977 1746 2079 1942 2091 1935 C 2096 1931 2121 1885 2145 1833 z" stroke-linecap="round" />
</g>
		<g transform="matrix(0.13 0 0 -0.13 34.76 24.67)"  >
<path style="stroke: none; stroke-width: 1; stroke-dasharray: none; stroke-linecap: butt; stroke-dashoffset: 0; stroke-linejoin: miter; stroke-miterlimit: 4; fill: rgb(0,0,0); fill-rule: nonzero; opacity: 1;" vector-effect="non-scaling-stroke"  transform=" translate(-3042.39, -1814.33)" d="M 2776 2125 C 2773 2116 2770 1974 2770 1810 C 2770 1565 2773 1510 2784 1501 C 2792 1494 2820 1490 2847 1492 L 2895 1495 L 2898 1708 C 2899 1824 2904 1920 2908 1920 C 2912 1920 2934 1892 2956 1857 C 3024 1754 3125 1598 3155 1550 C 3190 1493 3195 1490 3252 1490 C 3287 1490 3302 1495 3309 1508 C 3316 1522 3317 1763 3310 2128 C 3310 2137 3294 2140 3253 2138 L 3195 2135 L 3192 1942 C 3190 1797 3187 1749 3178 1752 C 3171 1755 3109 1842 3040 1946 L 2915 2135 L 2849 2138 C 2795 2140 2781 2138 2776 2125 z" stroke-linecap="round" />
</g>
		<g transform="matrix(0.13 0 0 -0.13 219.24 24.54)"  >
<path style="stroke: none; stroke-width: 1; stroke-dasharray: none; stroke-linecap: butt; stroke-dashoffset: 0; stroke-linejoin: miter; stroke-miterlimit: 4; fill: rgb(0,0,0); fill-rule: nonzero; opacity: 1;" vector-effect="non-scaling-stroke"  transform=" translate(-4426.02, -1815.35)" d="M 4126 2131 C 4123 2126 4135 2084 4154 2038 C 4173 1993 4223 1867 4265 1760 C 4371 1489 4367 1496 4418 1492 C 4489 1487 4483 1477 4594 1770 C 4653 1925 4671 1971 4702 2043 C 4718 2081 4729 2118 4726 2126 C 4720 2141 4624 2146 4605 2132 C 4593 2125 4559 2039 4491 1850 C 4442 1716 4435 1701 4421 1715 C 4416 1721 4389 1786 4361 1860 C 4334 1934 4299 2027 4283 2065 L 4255 2135 L 4193 2138 C 4159 2140 4129 2137 4126 2131 z" stroke-linecap="round" />
</g>
		<g transform="matrix(0.13 0 0 -0.13 295.69 24.7)"  >
<path style="stroke: none; stroke-width: 1; stroke-dasharray: none; stroke-linecap: butt; stroke-dashoffset: 0; stroke-linejoin: miter; stroke-miterlimit: 4; fill: rgb(0,0,0); fill-rule: nonzero; opacity: 1;" vector-effect="non-scaling-stroke"  transform=" translate(-4999.34, -1814.16)" d="M 4953 2128 C 4948 2121 4930 2088 4915 2055 C 4882 1984 4733 1674 4684 1577 C 4665 1539 4652 1504 4656 1499 C 4662 1488 4760 1487 4776 1498 C 4782 1502 4801 1530 4816 1560 L 4845 1615 L 5006 1618 L 5166 1620 L 5195 1560 C 5225 1496 5247 1484 5316 1492 C 5340 1494 5345 1499 5343 1520 C 5342 1544 5176 1898 5091 2060 C 5051 2135 5051 2135 5007 2138 C 4980 2140 4959 2136 4953 2128 z M 5065 1831 C 5089 1782 5106 1739 5102 1736 C 5096 1729 4900 1728 4900 1734 C 4900 1742 4953 1852 4977 1896 C 4994 1926 5006 1938 5013 1931 C 5018 1926 5042 1881 5065 1831 z" stroke-linecap="round" />
</g>
		<g transform="matrix(0.13 0 0 -0.13 -8.94 164.19)"  >
<path style="stroke: none; stroke-width: 1; stroke-dasharray: none; stroke-linecap: butt; stroke-dashoffset: 0; stroke-linejoin: miter; stroke-miterlimit: 4; fill: rgb(0,0,0); fill-rule: nonzero; opacity: 1;" vector-effect="non-scaling-stroke"  transform=" translate(-2714.63, -767.94)" d="M 990 1341 C 990 1287 1127 1041 1238 895 C 1315 795 1479 632 1582 555 C 1830 368 2120 244 2428 194 C 2572 170 2846 170 2995 193 C 3183 222 3433 303 3580 383 C 3941 579 4197 839 4382 1197 C 4444 1317 4454 1360 4420 1360 C 4405 1360 4390 1338 4356 1265 C 4210 954 4038 752 3740 541 C 3633 465 3433 360 3326 323 C 3141 261 2933 227 2725 227 C 2516 226 2244 274 2060 343 C 1708 476 1379 746 1180 1064 C 1166 1086 1126 1160 1090 1229 C 1050 1307 1018 1356 1008 1358 C 995 1360 990 1355 990 1341 z" stroke-linecap="round" />
</g>
		<g transform="matrix(0.13 0 0 -0.13 -192.28 129.6)"  >
<path style="stroke: none; stroke-width: 1; stroke-dasharray: none; stroke-linecap: butt; stroke-dashoffset: 0; stroke-linejoin: miter; stroke-miterlimit: 4; fill: rgb(0,0,0); fill-rule: nonzero; opacity: 1;" vector-effect="non-scaling-stroke"  transform=" translate(-1339.57, -1027.4)" d="M 1280 1092 C 1232 1043 1241 976 1300 945 C 1322 934 1331 933 1336 942 C 1340 948 1338 956 1331 958 C 1282 974 1266 1036 1300 1070 C 1337 1107 1392 1085 1403 1030 C 1412 990 1430 992 1430 1033 C 1430 1075 1396 1109 1347 1117 C 1316 1122 1307 1118 1280 1092 z" stroke-linecap="round" />
</g>
		<g transform="matrix(0.13 0 0 -0.13 174.64 131.99)"  >
<path style="stroke: none; stroke-width: 1; stroke-dasharray: none; stroke-linecap: butt; stroke-dashoffset: 0; stroke-linejoin: miter; stroke-miterlimit: 4; fill: rgb(0,0,0); fill-rule: nonzero; opacity: 1;" vector-effect="non-scaling-stroke"  transform=" translate(-4091.54, -1009.48)" d="M 3995 1090 C 3988 1078 4067 920 4080 920 C 4086 920 4089 932 4088 948 C 4086 976 4114 1029 4134 1032 C 4140 1032 4150 1034 4155 1035 C 4161 1037 4171 1038 4178 1039 C 4186 1039 4190 1045 4188 1052 C 4186 1058 4150 1071 4109 1081 C 4023 1102 4003 1104 3995 1090 z M 4096 1049 C 4104 1035 4075 1006 4061 1014 C 4055 1018 4050 1030 4050 1041 C 4050 1062 4084 1068 4096 1049 z" stroke-linecap="round" />
</g>
		<g transform="matrix(0.13 0 0 -0.13 156.4 145.21)"  >
<path style="stroke: none; stroke-width: 1; stroke-dasharray: none; stroke-linecap: butt; stroke-dashoffset: 0; stroke-linejoin: miter; stroke-miterlimit: 4; fill: rgb(0,0,0); fill-rule: nonzero; opacity: 1;" vector-effect="non-scaling-stroke"  transform=" translate(-3954.68, -910.33)" d="M 3889 971 C 3829 910 3866 820 3952 820 C 3982 820 3998 827 4021 849 C 4052 880 4060 920 4035 920 C 4027 920 4018 909 4014 895 C 4002 846 3932 833 3904 875 C 3882 909 3893 946 3930 965 C 3947 974 3960 985 3960 990 C 3960 1011 3917 999 3889 971 z" stroke-linecap="round" />
</g>
		<g transform="matrix(0.13 0 0 -0.13 -177.03 146.56)"  >
<path style="stroke: none; stroke-width: 1; stroke-dasharray: none; stroke-linecap: butt; stroke-dashoffset: 0; stroke-linejoin: miter; stroke-miterlimit: 4; fill: rgb(0,0,0); fill-rule: nonzero; opacity: 1;" vector-effect="non-scaling-stroke"  transform=" translate(-1453.94, -900.14)" d="M 1389 961 C 1352 923 1351 882 1386 840 C 1410 812 1417 809 1463 812 C 1509 815 1516 818 1533 848 C 1550 877 1551 887 1541 921 C 1520 991 1440 1012 1389 961 z M 1508 933 C 1525 910 1523 886 1503 862 C 1473 828 1444 825 1415 854 C 1384 885 1383 913 1411 941 C 1435 965 1486 961 1508 933 z" stroke-linecap="round" />
</g>
		<g transform="matrix(0.13 0 0 -0.13 143.11 158.28)"  >
<path style="stroke: none; stroke-width: 1; stroke-dasharray: none; stroke-linecap: butt; stroke-dashoffset: 0; stroke-linejoin: miter; stroke-miterlimit: 4; fill: rgb(0,0,0); fill-rule: nonzero; opacity: 1;" vector-effect="non-scaling-stroke"  transform=" translate(-3855.02, -812.3)" d="M 3795 871 C 3790 861 3870 763 3896 747 C 3903 743 3911 744 3915 750 C 3921 760 3823 880 3808 880 C 3804 880 3799 876 3795 871 z" stroke-linecap="round" />
</g>
		<g transform="matrix(0.13 0 0 -0.13 -146.56 171.15)"  >
<path style="stroke: none; stroke-width: 1; stroke-dasharray: none; stroke-linecap: butt; stroke-dashoffset: 0; stroke-linejoin: miter; stroke-miterlimit: 4; fill: rgb(0,0,0); fill-rule: nonzero; opacity: 1;" vector-effect="non-scaling-stroke"  transform=" translate(-1682.47, -715.76)" d="M 1535 808 C 1504 767 1493 744 1501 741 C 1508 739 1524 749 1536 764 C 1569 801 1582 798 1574 753 L 1567 717 L 1609 724 C 1631 727 1650 727 1650 724 C 1650 720 1639 702 1625 684 C 1607 661 1603 649 1612 644 C 1619 639 1638 653 1661 680 C 1700 725 1726 731 1696 688 C 1674 656 1676 604 1701 579 C 1716 564 1731 560 1762 562 C 1799 565 1807 570 1837 613 C 1857 641 1869 668 1866 677 C 1858 697 1840 682 1814 635 C 1794 597 1758 580 1731 597 C 1705 613 1707 649 1734 691 C 1748 712 1760 733 1760 737 C 1759 756 1707 782 1682 777 C 1611 763 1615 760 1618 818 C 1621 864 1619 870 1602 870 C 1589 870 1565 848 1535 808 z" stroke-linecap="round" />
</g>
		<g transform="matrix(0.13 0 0 -0.13 109.09 162.44)"  >
<path style="stroke: none; stroke-width: 1; stroke-dasharray: none; stroke-linecap: butt; stroke-dashoffset: 0; stroke-linejoin: miter; stroke-miterlimit: 4; fill: rgb(0,0,0); fill-rule: nonzero; opacity: 1;" vector-effect="non-scaling-stroke"  transform=" translate(-3599.88, -781.06)" d="M 3590 778 C 3590 759 3592 758 3600 770 C 3613 789 3613 800 3600 800 C 3595 800 3590 790 3590 778 z" stroke-linecap="round" />
</g>
		<g transform="matrix(0.13 0 0 -0.13 133.31 169.24)"  >
<path style="stroke: none; stroke-width: 1; stroke-dasharray: none; stroke-linecap: butt; stroke-dashoffset: 0; stroke-linejoin: miter; stroke-miterlimit: 4; fill: rgb(0,0,0); fill-rule: nonzero; opacity: 1;" vector-effect="non-scaling-stroke"  transform=" translate(-3781.49, -730.1)" d="M 3690 786 C 3690 766 3780 660 3797 660 C 3805 660 3827 672 3846 687 C 3890 720 3877 741 3830 714 L 3799 695 L 3760 740 C 3738 765 3720 788 3720 793 C 3720 806 3690 800 3690 786 z" stroke-linecap="round" />
</g>
		<g transform="matrix(0.13 0 0 -0.13 117.66 177.94)"  >
<path style="stroke: none; stroke-width: 1; stroke-dasharray: none; stroke-linecap: butt; stroke-dashoffset: 0; stroke-linejoin: miter; stroke-miterlimit: 4; fill: rgb(0,0,0); fill-rule: nonzero; opacity: 1;" vector-effect="non-scaling-stroke"  transform=" translate(-3664.15, -664.86)" d="M 3614 741 C 3596 730 3579 717 3576 711 C 3569 700 3658 570 3672 570 C 3677 570 3699 582 3721 597 C 3747 614 3757 627 3751 633 C 3744 640 3732 637 3715 626 C 3662 591 3638 637 3688 676 C 3725 706 3711 716 3667 690 C 3633 670 3631 670 3622 687 C 3613 701 3618 710 3643 732 C 3681 764 3661 770 3614 741 z" stroke-linecap="round" />
</g>
		<g transform="matrix(0.13 0 0 -0.13 99.66 188.38)"  >
<path style="stroke: none; stroke-width: 1; stroke-dasharray: none; stroke-linecap: butt; stroke-dashoffset: 0; stroke-linejoin: miter; stroke-miterlimit: 4; fill: rgb(0,0,0); fill-rule: nonzero; opacity: 1;" vector-effect="non-scaling-stroke"  transform=" translate(-3529.15, -586.53)" d="M 3478 663 C 3450 645 3440 624 3440 574 C 3440 520 3507 478 3562 499 C 3623 522 3641 615 3583 608 C 3550 604 3542 584 3570 577 C 3597 570 3586 542 3552 533 C 3512 523 3475 541 3472 572 C 3467 611 3486 638 3522 648 C 3539 652 3555 661 3558 668 C 3564 686 3510 682 3478 663 z" stroke-linecap="round" />
</g>
		<g transform="matrix(0.13 0 0 -0.13 -114.38 191.72)"  >
<path style="stroke: none; stroke-width: 1; stroke-dasharray: none; stroke-linecap: butt; stroke-dashoffset: 0; stroke-linejoin: miter; stroke-miterlimit: 4; fill: rgb(0,0,0); fill-rule: nonzero; opacity: 1;" vector-effect="non-scaling-stroke"  transform=" translate(-1923.82, -561.46)" d="M 1854 593 C 1814 505 1821 471 1865 545 C 1880 571 1896 588 1900 583 C 1905 579 1912 548 1917 516 C 1921 483 1930 455 1937 453 C 1947 449 2020 580 2020 602 C 2020 624 1992 606 1977 575 C 1968 556 1956 540 1951 540 C 1946 540 1939 564 1935 593 C 1928 645 1916 670 1898 670 C 1893 670 1873 636 1854 593 z" stroke-linecap="round" />
</g>
		<g transform="matrix(0.13 0 0 -0.13 76.98 198.73)"  >
<path style="stroke: none; stroke-width: 1; stroke-dasharray: none; stroke-linecap: butt; stroke-dashoffset: 0; stroke-linejoin: miter; stroke-miterlimit: 4; fill: rgb(0,0,0); fill-rule: nonzero; opacity: 1;" vector-effect="non-scaling-stroke"  transform=" translate(-3359.08, -508.92)" d="M 3380 590 C 3380 580 3385 559 3392 545 C 3409 507 3396 505 3346 539 C 3296 574 3270 578 3270 553 C 3270 519 3315 410 3329 410 C 3342 410 3341 423 3325 478 C 3315 509 3338 507 3386 470 C 3441 429 3454 431 3446 478 C 3434 556 3380 647 3380 590 z" stroke-linecap="round" />
</g>
		<g transform="matrix(0.13 0 0 -0.13 -99.99 198.91)"  >
<path style="stroke: none; stroke-width: 1; stroke-dasharray: none; stroke-linecap: butt; stroke-dashoffset: 0; stroke-linejoin: miter; stroke-miterlimit: 4; fill: rgb(0,0,0); fill-rule: nonzero; opacity: 1;" vector-effect="non-scaling-stroke"  transform=" translate(-2031.75, -507.53)" d="M 2053 578 C 2040 563 1990 451 1990 439 C 1990 434 1996 430 2004 430 C 2021 430 2084 570 2072 582 C 2067 587 2059 586 2053 578 z" stroke-linecap="round" />
</g>
		<g transform="matrix(0.13 0 0 -0.13 -84.91 203.46)"  >
<path style="stroke: none; stroke-width: 1; stroke-dasharray: none; stroke-linecap: butt; stroke-dashoffset: 0; stroke-linejoin: miter; stroke-miterlimit: 4; fill: rgb(0,0,0); fill-rule: nonzero; opacity: 1;" vector-effect="non-scaling-stroke"  transform=" translate(-2144.9, -473.45)" d="M 2077 493 C 2048 400 2053 390 2129 382 C 2174 378 2181 380 2204 405 C 2248 452 2232 528 2174 551 C 2103 577 2104 578 2077 493 z M 2183 512 C 2224 477 2191 410 2133 410 C 2091 410 2085 424 2105 480 C 2127 543 2140 548 2183 512 z" stroke-linecap="round" />
</g>
		<g transform="matrix(0.13 0 0 -0.13 56.44 208.57)"  >
<path style="stroke: none; stroke-width: 1; stroke-dasharray: none; stroke-linecap: butt; stroke-dashoffset: 0; stroke-linejoin: miter; stroke-miterlimit: 4; fill: rgb(0,0,0); fill-rule: nonzero; opacity: 1;" vector-effect="non-scaling-stroke"  transform=" translate(-3205, -435.08)" d="M 3146 513 C 3140 492 3120 371 3120 353 C 3120 331 3140 339 3152 364 C 3164 392 3234 410 3253 391 C 3268 376 3290 377 3290 393 C 3289 408 3176 530 3162 530 C 3156 530 3149 522 3146 513 z M 3207 437 C 3203 422 3160 415 3160 428 C 3160 458 3172 469 3192 459 C 3202 453 3209 443 3207 437 z" stroke-linecap="round" />
</g>
		<g transform="matrix(0.13 0 0 -0.13 -64.71 211.87)"  >
<path style="stroke: none; stroke-width: 1; stroke-dasharray: none; stroke-linecap: butt; stroke-dashoffset: 0; stroke-linejoin: miter; stroke-miterlimit: 4; fill: rgb(0,0,0); fill-rule: nonzero; opacity: 1;" vector-effect="non-scaling-stroke"  transform=" translate(-2296.39, -410.37)" d="M 2283 457 C 2208 375 2190 331 2244 360 C 2276 377 2336 365 2350 340 C 2365 312 2380 315 2380 346 C 2380 388 2347 500 2334 500 C 2328 500 2305 480 2283 457 z M 2335 415 C 2335 393 2321 387 2301 399 C 2289 407 2288 411 2300 425 C 2316 445 2335 439 2335 415 z" stroke-linecap="round" />
</g>
		<g transform="matrix(0.13 0 0 -0.13 32.82 211.83)"  >
<path style="stroke: none; stroke-width: 1; stroke-dasharray: none; stroke-linecap: butt; stroke-dashoffset: 0; stroke-linejoin: miter; stroke-miterlimit: 4; fill: rgb(0,0,0); fill-rule: nonzero; opacity: 1;" vector-effect="non-scaling-stroke"  transform=" translate(-3027.82, -410.66)" d="M 3066 484 C 3063 475 3060 462 3060 455 C 3060 447 3055 429 3049 413 L 3039 385 L 3010 432 C 2978 482 2964 495 2956 481 C 2951 473 2999 382 3034 335 C 3045 319 3051 318 3061 327 C 3071 337 3099 450 3100 488 C 3100 506 3073 503 3066 484 z" stroke-linecap="round" />
</g>
		<g transform="matrix(0.13 0 0 -0.13 -37.32 214.55)"  >
<path style="stroke: none; stroke-width: 1; stroke-dasharray: none; stroke-linecap: butt; stroke-dashoffset: 0; stroke-linejoin: miter; stroke-miterlimit: 4; fill: rgb(0,0,0); fill-rule: nonzero; opacity: 1;" vector-effect="non-scaling-stroke"  transform=" translate(-2501.83, -390.28)" d="M 2436 463 C 2434 453 2428 415 2425 379 L 2418 313 L 2450 306 C 2503 296 2526 299 2553 320 C 2606 362 2592 447 2529 469 C 2481 486 2442 483 2436 463 z M 2524 439 C 2574 400 2546 325 2483 332 C 2456 335 2455 337 2458 385 C 2462 432 2473 460 2490 460 C 2494 460 2509 451 2524 439 z" stroke-linecap="round" />
</g>
		<g transform="matrix(0.13 0 0 -0.13 13.11 215.3)"  >
<path style="stroke: none; stroke-width: 1; stroke-dasharray: none; stroke-linecap: butt; stroke-dashoffset: 0; stroke-linejoin: miter; stroke-miterlimit: 4; fill: rgb(0,0,0); fill-rule: nonzero; opacity: 1;" vector-effect="non-scaling-stroke"  transform=" translate(-2880, -384.65)" d="M 2863 472 L 2820 469 L 2820 391 C 2820 340 2824 309 2833 302 C 2847 290 2940 298 2940 311 C 2940 316 2925 320 2906 320 C 2865 320 2841 343 2860 365 C 2867 373 2886 380 2902 380 C 2943 380 2933 405 2892 406 C 2854 407 2845 414 2853 435 C 2857 444 2872 450 2890 450 C 2906 450 2920 454 2920 459 C 2920 473 2910 475 2863 472 z" stroke-linecap="round" />
</g>
		<g transform="matrix(0.13 0 0 -0.13 -15.67 216.09)"  >
<path style="stroke: none; stroke-width: 1; stroke-dasharray: none; stroke-linecap: butt; stroke-dashoffset: 0; stroke-linejoin: miter; stroke-miterlimit: 4; fill: rgb(0,0,0); fill-rule: nonzero; opacity: 1;" vector-effect="non-scaling-stroke"  transform=" translate(-2664.2, -378.72)" d="M 2617 463 C 2610 452 2607 396 2609 338 L 2610 290 L 2665 290 C 2695 290 2720 295 2720 300 C 2720 306 2707 310 2692 310 C 2676 310 2655 316 2645 324 C 2629 336 2628 340 2639 354 C 2647 363 2667 370 2686 370 C 2721 370 2732 383 2704 394 C 2695 397 2677 400 2664 400 C 2647 400 2640 406 2640 420 C 2640 437 2647 440 2680 440 C 2702 440 2720 445 2720 450 C 2720 456 2717 460 2713 461 C 2708 461 2686 464 2663 466 C 2640 469 2620 467 2617 463 z" stroke-linecap="round" />
</g>
</g>
</g>
</svg>